Coordinates
version=1
nRows=11
nColumns=42
inDegrees=yes

Units are S.I. units (second, meters, Newtons, ...)
If the header above contains a line with 'inDegrees', this indicates whether rotational values are in degrees (yes) or radians (no).

endheader
time	pelvis_tilt	pelvis_list	pelvis_rotation	pelvis_tx	pelvis_ty	pelvis_tz	hip_flexion_r	hip_adduction_r	hip_rotation_r	knee_angle_r	knee_adduction_r	knee_angle_r_beta	ankle_angle_r	subtalar_angle_r	mtp_angle_r	hip_flexion_l	hip_adduction_l	hip_rotation_l	knee_angle_l	knee_adduction_l	knee_angle_l_beta	ankle_angle_l	subtalar_angle_l	mtp_angle_l	lumbar_extension	lumbar_bending	lumbar_rotation	arm_flex_r	arm_add_r	arm_rot_r	elbow_flex_r	pro_sup_r	wrist_flex_r	wrist_dev_r	arm_flex_l	arm_add_l	arm_rot_l	elbow_flex_l	pro_sup_l	wrist_flex_l	wrist_dev_l
      2.19000000	     11.86899785	      2.08304512	      2.77974187	      0.19990005	      0.91986424	     -0.18162273	      2.16283933	     -3.79246986	     -5.25798446	     78.36582294	     -0.60279801	      1.36774163	     14.67459743	     -6.17140314	     -7.50160353	      7.46549487	      8.37614173	    -12.74248764	     33.74399427	    -11.11798013	      0.58894380	     17.42882933	      3.99754009	     -7.50160353	    -34.02537258	     -2.94907044	     -1.89969374	      9.23435454	    -10.93581562	      0.50972146	     30.65242096	     90.00000001	      0.00000000	      0.00000000	     12.73618736	    -14.11449555	     -7.79677707	     33.57580240	     90.00000001	      0.00000000	      0.00000000
      2.20000000	     11.76085411	      2.16948581	      2.75634750	      0.20773547	      0.92086478	     -0.18265959	      4.14552646	     -3.74852692	     -4.91991893	     78.92928349	     -0.70899324	      1.37757587	     15.32255261	     -6.56273272	     -7.50157607	      6.69466339	      8.58936854	    -12.87908657	     33.06070038	    -11.21375380	      0.57701807	     17.67377212	      4.21487325	     -7.50157607	    -34.04577989	     -2.94439712	     -2.08152282	      8.19875717	    -10.59772955	      0.42057683	     30.34054822	     90.00000001	      0.00000000	      0.00000000	     13.82878121	    -14.48093916	     -7.75444539	     34.15370956	     90.00000001	      0.00000000	      0.00000000
      2.21000000	     11.77799321	      2.11383055	      2.90298928	      0.21564672	      0.92194774	     -0.18357068	      5.84662083	     -3.49557820	     -4.70838451	     79.03621064	     -0.71709368	      1.37944210	     15.55843587	     -6.55185890	     -7.50155829	      5.91047747	      8.50955215	    -13.04992678	     32.70994979	    -11.22485751	      0.57089632	     17.74553032	      4.31622108	     -7.50155829	    -34.16878891	     -2.74263001	     -2.54326173	      7.24382301	    -10.17518800	      0.42704759	     30.15813996	     90.00000001	      0.00000000	      0.00000000	     14.84901292	    -15.07026357	     -7.78334917	     34.66539964	     90.00000001	      0.00000000	      0.00000000
      2.22000000	     11.50902173	      2.37105418	      2.70139864	      0.22360332	      0.92250715	     -0.18456640	      7.95527714	     -3.65193085	     -4.15214207	     79.13475874	     -0.73294301	      1.38116209	     16.66715083	     -7.43871135	     -7.50153345	      5.17823512	      9.03134613	    -13.22239737	     31.65274097	    -11.42478552	      0.55244455	     18.12378122	      4.89094751	     -7.50153345	    -33.96402737	     -2.98886149	     -2.55229795	      6.16808902	     -9.89477077	      0.26298320	     29.73712260	     90.00000001	      0.00000000	      0.00000000	     15.91074035	    -15.31211372	     -7.66439023	     35.24092415	     90.00000001	      0.00000000	      0.00000000
      2.23000000	     11.43143761	      2.40335783	      2.68220702	      0.23164928	      0.92316165	     -0.18525534	      9.55625657	     -3.44231222	     -2.32082171	     78.70377506	      0.80898684	      1.37364001	     16.99177886	     -9.79201965	     -7.50142823	      4.52518365	      8.99316484	    -14.38548171	     31.09535340	    -11.84644970	      0.54271630	     18.85632274	      7.66875528	     -7.50142823	    -33.93928503	     -2.97827709	     -2.83029898	      5.38136496	     -9.24679442	     -1.11127011	     29.10160164	     90.00000001	      0.00000000	      0.00000000	     16.84851072	    -16.02339209	     -6.93614456	     35.78937847	     90.00000001	      0.00000000	      0.00000000
      2.24000000	     11.33255954	      2.50957325	      2.66455733	      0.23982102	      0.92373604	     -0.18609850	     11.22999771	     -3.42192940	     -2.39682790	     78.06922236	      0.50814310	      1.36256497	     17.51254410	     -9.98141778	     -7.50140257	      3.73077995	      9.20215874	    -14.52606267	     30.41824903	    -11.91989483	      0.53089860	     19.06204796	      7.96290130	     -7.50140257	    -33.86786783	     -3.01828037	     -3.08694668	      4.34917033	     -8.92760070	     -1.22335436	     28.91534924	     90.00000001	      0.00000000	      0.00000000	     17.80932547	    -16.50678605	     -6.90279073	     36.32410172	     90.00000001	      0.00000000	      0.00000000
      2.25000000	     11.31453364	      2.63647686	      2.66548802	      0.24814400	      0.92430395	     -0.18689140	     12.68026226	     -3.43239332	     -2.60510605	     77.13219943	      0.17452142	      1.34621084	     18.02903433	    -10.32645313	     -7.50137387	      2.82349947	      9.41806674	    -14.66322093	     29.72045076	    -11.98798033	      0.51871972	     19.29008150	      8.54979708	     -7.50137387	    -33.86863481	     -3.09246869	     -3.41731910	      3.32244693	     -8.58563802	     -1.37227045	     28.78213846	     90.00000001	      0.00000000	      0.00000000	     18.74705606	    -17.05540474	     -6.81708505	     36.85114597	     90.00000001	      0.00000000	      0.00000000
      2.26000000	     11.27405680	      2.73428707	      2.66007424	      0.25649646	      0.92471637	     -0.18765763	     14.06472324	     -3.42010169	     -2.90479341	     75.92851704	     -0.20530870	      1.32520262	     18.43608574	    -10.57336505	     -7.50134812	      1.95878748	      9.60103656	    -14.84603617	     29.03415026	    -12.08463554	      0.50674152	     19.55758865	      9.10896744	     -7.50134812	    -33.83242376	     -3.13360271	     -3.70289589	      2.28200911	     -8.29838719	     -1.48885455	     28.68161615	     90.00000001	      0.00000000	      0.00000000	     19.64289893	    -17.59787647	     -6.72333287	     37.37124613	     90.00000001	      0.00000000	      0.00000000
      2.27000000	     11.42170564	      2.77226432	      2.74223883	      0.26520685	      0.92515317	     -0.18826535	     15.10448925	     -3.33984474	     -4.13747171	     74.41605126	     -1.29513343	      1.29880511	     18.36920220	    -11.12006648	     -7.50123870	      1.01744324	      9.51463342	    -15.94125035	     28.52764797	    -12.43361241	      0.49790138	     20.36040792	     11.89659218	     -7.50123870	    -33.95439864	     -3.11330126	     -4.05326656	      1.15734994	     -7.90207080	     -2.04631925	     28.85717878	     90.00000001	      0.00000000	      0.00000000	     20.40543935	    -18.44049294	     -5.75927826	     38.04395169	     90.00000001	      0.00000000	      0.00000000
      2.28000000	     11.22410117	      2.91541461	      2.76904655	      0.27353606	      0.92505483	     -0.18893051	     16.46833979	     -3.44331082	     -4.24958459	     72.82058595	     -1.33604722	      1.27095899	     18.56944506	    -10.78134485	     -7.50122329	      0.46003108	      9.67351493	    -16.12319042	     28.19082319	    -12.38366955	      0.49202268	     20.46786537	     11.88150012	     -7.50122329	    -33.74339866	     -3.23955272	     -4.41252197	      0.18966503	     -7.57261317	     -2.02204107	     28.75336747	     90.00000001	      0.00000000	      0.00000000	     21.29423030	    -19.03621889	     -5.81838507	     38.50876444	     90.00000001	      0.00000000	      0.00000000
      2.29000000	     11.04422034	      3.09450424	      2.80012707	      0.28196133	      0.92476040	     -0.18962062	     17.73836675	     -3.61842796	     -4.44703568	     71.14560559	     -1.38178644	      1.24172507	     18.74225545	    -10.44875383	     -7.50120935	     -0.11125471	      9.86401425	    -16.29049271	     27.90123734	    -12.32297051	      0.48696846	     20.57638799	     11.88859401	     -7.50120935	    -33.53556628	     -3.39686235	     -4.82196311	     -0.80801912	     -7.39403492	     -2.02297057	     28.65189801	     90.00000001	      0.00000000	      0.00000000	     22.14895476	    -19.67035574	     -5.88678509	     38.95184263	     90.00000001	      0.00000000	      0.00000000
